PathFileType	4	(X/Y/Z)	../Python\walking\Walking09\task.trc
DataRate	CameraRate	NumFrames	NumMarkers	Units	OrigDataRate	OrigDataStartFrame	OrigNumFrames
200.000000	200.000000	7	30	mm	200.000000	501	668
Frame#	Time	CLAV			STRN			RASI			LASI			RTH1			RTH2			RTH3			RTB1			RTB2			RTB3			RHEE			RD5M			RTOE			LTH1			LTH3			LTB1			LTB3			LTOE			LD5M			LPSI			LTB2			LTH2			RPSI			PE02			T10			PE03			PE01			C7			LHEE			RBAK			
		X1	Y1	Z1	X2	Y2	Z2	X3	Y3	Z3	X4	Y4	Z4	X5	Y5	Z5	X6	Y6	Z6	X7	Y7	Z7	X8	Y8	Z8	X9	Y9	Z9	X10	Y10	Z10	X11	Y11	Z11	X12	Y12	Z12	X13	Y13	Z13	X14	Y14	Z14	X15	Y15	Z15	X16	Y16	Z16	X17	Y17	Z17	X18	Y18	Z18	X19	Y19	Z19	X20	Y20	Z20	X21	Y21	Z21	X22	Y22	Z22	X23	Y23	Z23	X24	Y24	Z24	X25	Y25	Z25	X26	Y26	Z26	X27	Y27	Z27	X28	Y28	Z28	X29	Y29	Z29	X30	Y30	Z30	

502	2.505	1839.554809570313	1432.709350585938	166.9490814208985	1889.009887695313	1239.984130859375	183.4202575683594	1856.693969726563	1033.7802734375	318.0322265625001	1872.458862304688	1030.987670898438	46.46680068969728	1895.826782226563	785.670288085938	370.6079406738282	1857.024780273438	739.8768310546877	351.9913635253907	1896.231445312501	708.9937133789065	347.6427307128907	1962.589843750001	404.4378662109377	316.5383911132814	1907.021118164063	377.337127685547	317.2858886718751	1928.465332031251	332.4998474121095	310.409881591797	1750.629150390626	103.9363403320313	233.0836334228517	1887.418945312501	46.14035034179689	326.0291748046876	1942.590698242188	47.98423385620119	294.0302734375001	1765.188598632813	724.4140625000002	21.80125045776368	1778.815307617188	649.069030761719	42.12045669555665	1699.926879882813	361.5758666992189	74.03427886962893	1713.467285156251	285.2762451171876	88.42507934570315	1832.376220703126	31.72201347351076	170.7453765869141	1785.991333007813	17.85154342651368	119.7718048095704	1697.469238281251	1077.19775390625	135.4722290039063	1667.091064453126	326.6582336425782	88.32270050048831	1732.482421875001	689.1977539062502	35.03406143188478	1700.065185546876	1074.203491210938	235.2514953613282	1694.595458984376	1062.34716796875	212.1918487548829	1666.943115234376	1270.605102539063	159.2870788574219	1691.690429687501	1063.131713867188	161.1754150390626	1706.737304687501	1122.50341796875	186.0006103515626	1729.669067382813	1524.719848632813	146.8330383300782	1617.243408203126	42.6345901489258	178.4391021728516	1693.605346679688	1446.214721679688	317.5615234375001	
503	2.51	1845.579711914063	1432.236328125	166.9298095703126	1894.781250000001	1239.436401367188	183.2477111816407	1862.615478515626	1033.778564453125	317.8259582519532	1877.715087890626	1030.348876953125	46.2927703857422	1903.685791015626	786.4378051757817	370.5973510742189	1865.035400390626	740.3321533203127	352.7396545410157	1904.359375000001	709.720153808594	347.9056396484376	1974.566040039063	404.2143859863284	316.1310119628907	1919.808715820313	375.4832458496095	317.1665649414064	1942.470825195313	331.3323974609376	310.142059326172	1771.392333984376	97.38838195800787	233.2942352294923	1910.099487304688	43.9976272583008	325.9261779785157	1965.148071289063	47.64611053466798	293.8790588378907	1768.723022460938	724.223571777344	21.89442443847657	1781.929687500001	648.8271484375002	42.2286720275879	1701.387329101563	361.7725830078126	74.24330139160159	1714.563842773438	285.4042968750001	88.59590148925784	1832.480590820313	31.69794082641603	170.7154998779297	1785.968017578126	17.86170005798341	119.8052597045899	1702.968383789063	1076.754638671875	135.8843994140626	1668.401367187501	327.015350341797	88.58296966552737	1735.829345703126	689.2211914062502	35.24743652343751	1705.805053710938	1073.860717773438	235.6556549072267	1700.272460937501	1061.9873046875	212.6220703125001	1672.722656250001	1270.388427734375	159.0351867675782	1697.242675781251	1062.682373046875	161.6186981201172	1712.386352539063	1122.086547851563	186.316146850586	1735.807250976563	1524.376953125	146.8181762695313	1617.337158203126	43.04319763183595	178.8510894775391	1699.539428710938	1445.8271484375	317.3556518554689	
504	2.515	1851.620239257813	1431.71337890625	166.9141235351563	1900.558471679688	1238.832763671875	183.0928039550782	1868.559570312501	1033.71044921875	317.6489562988282	1882.966430664063	1029.688842773438	46.12844848632814	1911.437377929688	787.0772094726567	370.5796203613282	1872.936401367188	740.6882324218752	353.4627685546876	1912.358520507813	710.3289184570315	348.1414794921876	1986.408447265626	403.9425964355471	315.7254638671876	1932.519042968751	373.5910034179689	317.0339355468751	1956.390869140626	330.1672363281251	309.864471435547	1792.322143554688	91.03103637695315	233.4421997070314	1932.796997070313	42.04852676391603	325.7420043945314	1987.666748046876	47.48943328857423	293.6596069335939	1772.306274414063	724.0240478515627	21.99212074279786	1785.101196289063	648.5769042968752	42.34926605224611	1702.904907226563	361.9675903320314	74.47305297851565	1715.706298828126	285.530242919922	88.78692626953128	1832.586791992188	31.67079734802248	170.6868286132813	1785.943969726563	17.87862205505372	119.8451461791993	1708.472045898438	1076.279418945313	136.3317260742188	1669.764526367188	327.3760070800782	88.86158752441409	1739.227905273438	689.2256469726565	35.46139144897462	1711.557617187501	1073.45947265625	236.0821990966798	1705.963378906251	1061.581787109375	213.0779113769532	1678.504272460938	1270.130126953125	158.8010864257813	1702.803710937501	1062.19189453125	162.0862274169922	1718.038208007813	1121.620971679688	186.663314819336	1741.959350585938	1523.9892578125	146.8035888671876	1617.439697265626	43.46378326416017	179.2862548828126	1705.492919921876	1445.40283203125	317.1585083007814	
505	2.52	1857.676269531251	1431.141967773438	166.9024200439454	1906.342041015626	1238.175415039063	182.9552917480469	1874.529418945313	1033.577026367188	317.5010070800782	1888.214477539063	1029.009521484375	45.97290420532228	1919.073608398438	787.5818481445317	370.5568237304689	1880.718139648438	740.9392089843752	354.1539001464845	1920.221191406251	710.813415527344	348.3514099121095	1998.111694335938	403.6272277832034	315.3235168457032	1945.146484375001	371.670867919922	316.8882751464845	1970.216186523438	329.0130004882814	309.5791931152345	1813.388549804688	84.89447784423831	233.5347900390626	1955.496459960938	40.30310058593751	325.4669494628907	2010.129150390626	47.51893615722658	293.3535766601564	1775.939575195313	723.8160400390627	22.0954818725586	1788.329101562501	648.318054199219	42.48065185546876	1704.477050781251	362.1624450683595	74.72368621826175	1716.892333984376	285.6556396484376	88.99734497070315	1832.695312500001	31.6406593322754	170.6589508056641	1785.917724609376	17.90304946899415	119.8926391601563	1713.982055664063	1075.772705078125	136.8131866455079	1671.178222656251	327.7417602539064	89.15943908691409	1742.679077148438	689.2139282226565	35.67796325683595	1717.325073242188	1073.001220703125	236.5311126708986	1711.670898437501	1061.130859375	213.5593872070314	1684.288085937501	1269.830688476563	158.5854187011719	1708.376342773438	1061.660888671875	162.5780639648438	1723.694580078126	1121.108154296875	187.0419616699219	1748.124877929688	1523.557861328125	146.7898254394532	1617.552490234376	43.89830398559572	179.7428894042969	1711.465698242188	1444.942504882813	316.9708251953126	
506	2.525	1863.747558593751	1430.523315429688	166.8950958251954	1912.132202148438	1237.466552734375	182.834701538086	1880.528320312501	1033.379150390625	317.3817749023439	1893.461181640626	1028.312622070313	45.82530975341798	1926.587646484376	787.9454956054692	370.5310668945314	1888.370849609376	741.0796508789065	354.8066406250001	1927.939819335938	711.1671142578127	348.5371398925782	2009.670532226563	403.272888183594	314.9265441894532	1957.684448242188	369.7330932617189	316.7299194335939	1983.937011718751	327.8779602050782	309.2877807617189	1834.559570312501	79.006706237793	233.5791625976564	1978.182128906251	38.7709083557129	325.090545654297	2032.517089843751	47.73942947387697	292.940643310547	1779.624267578126	723.599548339844	22.20543098449708	1791.612670898438	648.0502929687502	42.6215286254883	1706.100708007813	362.3587036132814	74.99521636962893	1718.119750976563	285.782196044922	89.22629547119143	1832.806762695313	31.60789680480958	170.6314544677735	1785.887939453126	17.93572235107423	119.9489440917969	1719.500122070313	1075.234497070313	137.327133178711	1672.639648437501	328.113983154297	89.47734069824222	1746.183837890626	689.1888427734377	35.89918899536134	1723.110229492188	1072.487915039063	237.0022888183595	1717.397949218751	1060.634643554688	214.0662384033204	1690.074584960938	1269.49072265625	158.3888397216797	1713.963378906251	1061.08984375	163.0940704345704	1729.356933593751	1120.549682617188	187.4517974853516	1754.303710937501	1523.083618164063	146.7775268554688	1617.676757812501	44.34899902343751	180.218978881836	1717.457885742188	1444.447143554688	316.7933349609376	
507	2.53	1869.833862304688	1429.859130859375	166.8924255371094	1917.929565429688	1236.708740234375	182.7303924560547	1886.559692382813	1033.118286132813	317.2908020019532	1898.708740234376	1027.599853515625	45.68495941162111	1933.972656250001	788.1626586914067	370.5043945312501	1895.884887695313	741.1043701171877	355.4151916503907	1935.506591796876	711.383728027344	348.700897216797	2021.079589843751	402.8840332031252	314.5357055664064	1970.126342773438	367.7875061035157	316.559051513672	1997.543334960938	326.7700500488282	308.9913940429689	1855.802001953126	73.39307403564456	233.5817260742189	2000.837402343751	37.46108627319337	324.6020812988282	2054.811035156251	48.1560974121094	292.3999023437501	1783.361328125001	723.3741455078127	22.32258796691895	1794.951049804688	647.7730712890627	42.77081298828126	1707.772583007813	362.5579833984376	75.28748321533206	1719.385742187501	285.9114685058595	89.47284698486331	1832.921386718751	31.57300949096681	170.603988647461	1785.852905273438	17.97730255126954	120.0151977539063	1725.028320312501	1074.664428710938	137.8714599609376	1674.146240234376	328.4941406250001	89.8158874511719	1749.743041992188	689.1526489257815	36.127010345459	1728.915283203126	1071.9208984375	237.4954986572267	1723.147216796876	1060.092895507813	214.597869873047	1695.864379882813	1269.111206054688	158.2119903564454	1719.567382812501	1060.479125976563	163.6338958740235	1735.027343750001	1119.94677734375	187.892318725586	1760.495483398438	1522.567749023438	146.7673339843751	1617.813232421876	44.81833648681642	180.7122039794922	1723.469726562501	1443.917846679688	316.6268310546876	
508	2.535	1875.934692382813	1429.151489257813	166.8947296142579	1923.734741210938	1235.904541015625	182.6415100097657	1892.626831054688	1032.7958984375	317.2275390625001	1903.959350585938	1026.872436523438	45.55127716064455	1941.223022460938	788.228637695313	370.4788513183595	1903.251220703126	741.0090332031252	355.9744873046876	1942.914184570313	711.4572753906252	348.8453369140626	2032.333251953126	402.4650573730471	314.1518554687501	1982.464843750001	365.8434448242189	316.3758544921876	2011.025024414063	325.6967163085939	308.6906127929689	1877.081787109376	68.07581329345706	233.5476379394532	2023.443481445313	36.38230133056642	323.9913330078126	2076.989746093751	48.7747497558594	291.7114562988282	1787.151489257813	723.139099121094	22.44723701477051	1798.343261718751	647.485778808594	42.92752075195314	1709.489868164063	362.7617187500001	75.60008239746097	1720.687866210938	286.0450439453126	89.73596191406253	1833.038574218751	31.53651618957521	170.5764617919922	1785.811035156251	18.02824211120606	120.0924606323243	1730.568725585938	1074.061767578125	138.4436798095704	1675.695190429688	328.883514404297	90.17541503906253	1753.357543945313	689.1070556640627	36.36316680908205	1734.743041992188	1071.302124023438	238.0103454589845	1728.921875000001	1059.505615234375	215.1534423828126	1701.658203125001	1268.692626953125	158.0555572509766	1725.191284179688	1059.828979492188	164.1969757080079	1740.707885742188	1119.301025390625	188.3628387451172	1766.699707031251	1522.011352539063	146.759994506836	1617.962036132813	45.30889892578126	181.2200317382813	1729.501098632813	1443.35546875	316.4721069335939	
